#!OML:ASF H:\Terrain\Patient Classification 1\Animal1\Tuesday\Animal1.ASF
:FULLY-SPECIFIED
:DEGREES
3975
root 9.59157 16.3282 -3.16987 -693.102 -27.6529 357.701
lowerback 22.0767 -2.95036 4.27264
upperback 0.349403 -2.15287 5.63261
thorax -11.9816 -1.06288 4.59396
lowerneck 4.6987 -3.37434 -8.11807
upperneck -25.1912 -5.20488 4.48063
head -8.2304 -2.33845 3.33429
rclavicle -5.00937e-014 -1.59028e-015
rhumerus 14.6661 -31.9239 -20.1585
rradius 106.175
rwrist -9.56798
rhand -33.3163 36.7014
rfingers 7.12502
rthumb -6.51955 6.82177
lclavicle -5.00937e-014 -1.59028e-015
lhumerus -21.2126 28.5482 8.85609
lradius 98.3852
lwrist -8.9505
lhand -0.565044 59.6861
lfingers 7.12502
lthumb 25.0491 88.0635
rfemur -51.8259 19.5321 16.0318
rtibia 35.3138
rfoot -7.31412 1.49203
rtoes -8.11217
lfemur -59.7956 -8.54722 -2.51509
ltibia 68.6469
lfoot 27.8917 30.8361
ltoes 36.615
3976
root 9.59574 16.3269 -3.17607 -693.141 -27.5952 357.603
lowerback 22.1279 -2.93681 4.52065
upperback 0.441971 -2.06675 5.70972
thorax -11.9145 -1.03633 4.51006
lowerneck 4.61112 -3.28961 -7.62858
upperneck -25.2241 -5.21503 3.6287
head -8.27271 -2.30359 2.96702
rclavicle 1.43125e-014 4.92986e-014
rhumerus 15.3944 -31.9801 -20.9187
rradius 105.694
rwrist -8.9701
rhand -33.3248 38.1389
rfingers 7.12502
rthumb -6.52781 8.25954
lclavicle 1.43125e-014 4.92986e-014
lhumerus -21.1979 28.477 9.03333
lradius 98.3492
lwrist -9.59177
lhand -1.56607 59.6701
lfingers 7.12502
lthumb 24.0895 88.1779
rfemur -51.722 19.6009 16.1368
rtibia 35.2797
rfoot -7.39061 1.40051
rtoes -8.84011
lfemur -59.8077 -8.64548 -2.35332
ltibia 68.6922
lfoot 30.2399 28.5437
ltoes 32.0682
3977
root 9.59932 16.3294 -3.18541 -693.214 -27.6195 357.743
lowerback 22.1774 -2.93076 4.4919
upperback 0.47539 -2.0621 5.72918
thorax -11.9021 -1.03196 4.5482
lowerneck 4.58588 -3.16388 -7.46319
upperneck -25.2317 -5.1196 3.17725
head -8.29908 -2.22783 2.7812
rclavicle 6.95746e-014 -5.48646e-014
rhumerus 16.0843 -31.8242 -21.6534
rradius 105.339
rwrist -8.74835
rhand -34.0169 39.6628
rfingers 7.12502
rthumb -7.19584 9.80516
lclavicle 6.95746e-014 -5.48646e-014
lhumerus -21.365 28.459 9.07962
lradius 98.3082
lwrist -10.2692
lhand -1.62494 59.892
lfingers 7.12502
lthumb 24.0331 88.4073
rfemur -51.7249 19.6205 15.9719
rtibia 35.2376
rfoot -7.49792 1.20578
rtoes -10.6944
lfemur -59.9453 -8.85562 -2.31733
ltibia 68.7247
lfoot 29.4183 29.3802
ltoes 34.9743
3978
root 9.60312 16.3334 -3.19107 -693.272 -27.6892 357.964
lowerback 22.122 -2.91817 4.37567
upperback 0.479244 -2.07823 5.74458
thorax -11.861 -1.03268 4.63277
lowerneck 4.64557 -3.03951 -7.67419
upperneck -25.2385 -4.9967 3.08833
head -8.31909 -2.13942 2.77957
rclavicle -1.39149e-014 1.43125e-014
rhumerus 16.6019 -31.6155 -22.0046
rradius 105.159
rwrist -8.81065
rhand -34.3769 40.7164
rfingers 7.12502
rthumb -7.54332 10.8709
lclavicle -1.39149e-014 1.43125e-014
lhumerus -21.6622 28.3514 8.97764
lradius 98.2793
lwrist -10.751
lhand -1.58396 60.3714
lfingers 7.12502
lthumb 24.0724 88.8815
rfemur -51.7984 19.5566 15.7376
rtibia 35.2288
rfoot -7.65979 1.08029
rtoes -11.5504
lfemur -60.0956 -9.12548 -2.33533
ltibia 68.7594
lfoot 28.5052 30.3199
ltoes 37.2824
3979
root 9.60611 16.3341 -3.19534 -693.345 -27.7138 358.112
lowerback 22.0792 -2.88785 4.38191
upperback 0.484128 -2.03875 5.76373
thorax -11.8327 -1.01458 4.63496
lowerneck 4.86704 -2.97274 -7.83505
upperneck -25.4154 -4.98347 2.94514
head -8.42428 -2.09859 2.76899
rclavicle -8.70677e-014 3.02153e-014
rhumerus 16.969 -31.4393 -22.2593
rradius 105.017
rwrist -8.51024
rhand -34.3075 41.2765
rfingers 7.12502
rthumb -7.47642 11.4286
lclavicle -8.70677e-014 3.02153e-014
lhumerus -21.8124 28.2007 8.91756
lradius 98.1628
lwrist -11.2222
lhand -1.68627 60.8229
lfingers 7.12502
lthumb 23.9743 89.346
rfemur -51.8141 19.5003 15.6191
rtibia 35.2744
rfoot -7.80177 0.917564
rtoes -12.7188
lfemur -60.1437 -9.44576 -2.28107
ltibia 68.7844
lfoot 30.6596 28.1029
ltoes 32.8563
3980
root 9.60764 16.3374 -3.20239 -693.431 -27.803 358.403
lowerback 22.0109 -2.79105 4.27753
upperback 0.416036 -1.93966 5.75172
thorax -11.8736 -0.962332 4.64917
lowerneck 5.18105 -2.91927 -8.00708
upperneck -25.4631 -5.01344 2.71351
head -8.50327 -2.06893 2.73188
rclavicle 6.20208e-014 -2.94201e-014
rhumerus 17.6939 -31.3057 -23.0045
rradius 104.363
rwrist -7.77749
rhand -34.508 41.9767
rfingers 7.12502
rthumb -7.66996 12.1358
lclavicle 6.20208e-014 -2.94201e-014
lhumerus -21.9271 27.8727 8.99901
lradius 97.9259
lwrist -11.5797
lhand -2.54122 60.4976
lfingers 7.12502
lthumb 23.1542 89.1261
rfemur -51.9313 19.4458 15.3209
rtibia 35.343
rfoot -7.85859 0.852866
rtoes -12.7486
lfemur -60.2463 -9.77958 -2.34393
ltibia 68.7972
lfoot 32.4631 25.8213
ltoes 28.4737
3981
root 9.60996 16.3398 -3.20772 -693.479 -27.9285 358.541
lowerback 21.9045 -2.68452 4.26873
upperback 0.421462 -1.80929 5.77419
thorax -11.8126 -0.901823 4.63042
lowerneck 5.08173 -2.84486 -8.21721
upperneck -25.1258 -4.96631 2.47639
head -8.37793 -2.00966 2.67078
rclavicle -1.03368e-014 -2.46493e-014
rhumerus 18.3842 -31.1384 -23.6388
rradius 103.72
rwrist -7.52453
rhand -34.753 43.7598
rfingers 7.12502
rthumb -7.90635 13.9277
lclavicle -1.03368e-014 -2.46493e-014
lhumerus -21.9937 27.6141 9.14846
lradius 97.7879
lwrist -12.1566
lhand -3.80882 60.1096
lfingers 7.12502
lthumb 21.9375 88.8857
rfemur -51.9852 19.4174 15.1961
rtibia 35.3733
rfoot -7.9602 0.850956
rtoes -12.7486
lfemur -60.2882 -9.93601 -2.36287
ltibia 68.8494
lfoot 31.9077 26.3807
ltoes 30.1997
3982
root 9.61231 16.3375 -3.21171 -693.55 -27.9983 358.4
lowerback 21.8584 -2.64304 4.45178
upperback 0.568658 -1.71752 5.84899
thorax -11.6259 -0.870514 4.56858
lowerneck 4.64992 -2.69751 -8.42096
upperneck -24.6708 -4.75973 2.31497
head -8.15868 -1.88857 2.61129
rclavicle -2.14687e-014 1.03368e-014
rhumerus 18.8401 -30.8438 -24.0221
rradius 103.613
rwrist -7.67537
rhand -35.1688 46.1496
rfingers 7.12502
rthumb -8.30772 16.333
lclavicle -2.14687e-014 1.03368e-014
lhumerus -21.8421 27.6535 9.23836
lradius 97.5008
lwrist -13.0899
lhand -4.57015 60.0579
lfingers 7.12502
lthumb 21.2064 88.918
rfemur -51.8058 19.4586 15.4196
rtibia 35.3405
rfoot -8.06849 0.836591
rtoes -12.7531
lfemur -60.1054 -9.95811 -2.24172
ltibia 68.9042
lfoot 30.6902 27.7179
ltoes 33.1786
3983
root 9.61575 16.3338 -3.2185 -693.585 -28.0859 358.294
lowerback 21.8676 -2.59969 4.63915
upperback 0.638025 -1.61845 5.85934
thorax -11.5612 -0.835938 4.43803
lowerneck 4.64182 -2.51971 -8.39705
upperneck -24.5672 -4.55389 2.06514
head -8.14386 -1.76823 2.5057
rclavicle 2.38542e-015 -3.18055e-015
rhumerus 18.5478 -30.2461 -23.6392
rradius 104
rwrist -8.07162
rhand -36.3364 46.9645
rfingers 7.12502
rthumb -9.43437 17.1957
lclavicle 2.38542e-015 -3.18055e-015
lhumerus -21.7133 27.5769 9.29854
lradius 97.1684
lwrist -14.0769
lhand -4.94429 60.0105
lfingers 7.12502
lthumb 20.8469 88.9105
rfemur -51.7069 19.5498 15.5328
rtibia 35.258
rfoot -8.09771 0.735068
rtoes -12.1198
lfemur -60.0197 -10.0359 -2.08771
ltibia 68.9548
lfoot 29.1135 29.4371
ltoes 36.831
3984
root 9.61986 16.3337 -3.22944 -693.627 -28.1929 358.289
lowerback 21.9832 -2.5202 4.78374
upperback 0.635023 -1.47239 5.81753
thorax -11.6398 -0.777027 4.26946
lowerneck 4.93463 -2.41899 -8.14618
upperneck -24.7726 -4.51369 1.63304
head -8.28987 -1.7207 2.32848
rclavicle 1.51076e-014 2.78299e-014
rhumerus 16.9601 -29.1373 -21.7036
rradius 105.159
rwrist -9.27668
rhand -38.1062 46.3766
rfingers 7.12502
rthumb -11.1417 16.6923
lclavicle 1.51076e-014 2.78299e-014
lhumerus -21.7537 27.3747 9.47969
lradius 97.0873
lwrist -15.142
lhand -5.29484 59.7771
lfingers 7.12502
lthumb 20.5101 88.7138
rfemur -51.694 19.6537 15.4933
rtibia 35.18
rfoot -7.91533 0.627019
rtoes -13.8552
lfemur -60.0723 -10.2474 -1.88916
ltibia 69.0278
lfoot 27.4794 31.0083
ltoes 40.2014
3985
root 9.62369 16.3327 -3.24081 -693.74 -28.2482 358.347
lowerback 22.1027 -2.45593 4.83245
upperback 0.685139 -1.3701 5.81226
thorax -11.6539 -0.732552 4.20719
lowerneck 5.13821 -2.32273 -8.09678
upperneck -25.044 -4.46837 1.35678
head -8.43417 -1.66692 2.2354
rclavicle -7.15625e-015 -2.38542e-015
rhumerus 17.8176 -29.0474 -22.9422
rradius 104.394
rwrist -8.83616
rhand -39.0057 47.6833
rfingers 7.12502
rthumb -12.0092 18.0478
lclavicle -7.15625e-015 -2.38542e-015
lhumerus -21.8276 27.1855 9.63468
lradius 96.9705
lwrist -16.2419
lhand -5.82135 59.6178
lfingers 7.12502
lthumb 20.0041 88.6081
rfemur -51.6397 19.7121 15.4316
rtibia 35.1554
rfoot -7.72968 0.487911
rtoes -16.9516
lfemur -60.0723 -10.4322 -1.79804
ltibia 69.0855
lfoot 26.8344 31.502
ltoes 41.1189
3986
root 9.62765 16.3239 -3.24835 -693.903 -28.2661 358.492
lowerback 22.1458 -2.42275 4.81035
upperback 0.776233 -1.33513 5.81995
thorax -11.5738 -0.715566 4.21385
lowerneck 5.43087 -2.17439 -8.37706
upperneck -25.4067 -4.3295 1.41449
head -8.61502 -1.56733 2.30566
rclavicle -1.20861e-013 8.42847e-014
rhumerus 19.0156 -28.9373 -24.0015
rradius 103.543
rwrist -8.66079
rhand -39.9305 48.6372
rfingers 7.12502
rthumb -12.9008 19.056
lclavicle -1.20861e-013 8.42847e-014
lhumerus -21.87 26.976 9.68588
lradius 96.7083
lwrist -17.3591
lhand -7.12898 60.07
lfingers 7.12502
lthumb 18.7468 89.1867
rfemur -51.5725 19.7209 15.3177
rtibia 35.1801
rfoot -7.83355 0.134166
rtoes -18.1588
lfemur -59.9617 -10.5115 -1.94508
ltibia 69.075
lfoot 27.4703 30.9696
ltoes 39.7228
3987
root 9.62959 16.3198 -3.25492 -694.101 -28.3354 358.731
lowerback 22.1468 -2.3632 4.71445
upperback 0.868536 -1.28941 5.8143
thorax -11.4678 -0.690136 4.24135
lowerneck 4.74962 -2.07259 -7.8492
upperneck -24.756 -4.26449 0.356614
head -8.31436 -1.50325 1.8285
rclavicle -2.38542e-014 7.79236e-014
rhumerus 19.9219 -28.8331 -24.8476
rradius 102.929
rwrist -8.53178
rhand -40.3872 49.4852
rfingers 7.12502
rthumb -13.341 19.9323
lclavicle -2.38542e-014 7.79236e-014
lhumerus -21.9113 26.8449 9.8012
lradius 96.3842
lwrist -18.6037
lhand -8.83951 60.9383
lfingers 7.12502
lthumb 17.1009 -90.2057
rfemur -51.545 19.7133 15.1071
rtibia 35.2505
rfoot -8.05209 -0.0220193
rtoes -16.912
lfemur -59.7962 -10.6723 -2.15058
ltibia 68.9869
lfoot 27.8078 30.6587
ltoes 38.7905
3988
root 9.63046 16.3253 -3.26201 -694.323 -28.4383 358.951
lowerback 22.1904 -2.27969 4.63016
upperback 0.942181 -1.20822 5.7704
thorax -11.4092 -0.649695 4.21133
lowerneck 4.55528 -1.91979 -7.49371
upperneck -24.5519 -4.13104 -0.334597
head -8.24263 -1.41073 1.52033
rclavicle 4.69132e-014 9.06458e-014
rhumerus 20.5714 -28.7173 -25.9268
rradius 102.257
rwrist -7.92411
rhand -40.2762 51.0351
rfingers 7.12502
rthumb -13.234 21.4752
lclavicle 4.69132e-014 9.06458e-014
lhumerus -22.034 26.6249 9.83485
lradius 96.1206
lwrist -19.8707
lhand -9.66195 61.4553
lfingers 7.12502
lthumb 16.3092 -90.7894
rfemur -51.4812 19.7184 14.9255
rtibia 35.3325
rfoot -8.1429 0.157153
rtoes -14.382
lfemur -59.622 -10.9116 -2.26226
ltibia 68.8818
lfoot 27.3837 30.9155
ltoes 38.7056
3989
root 9.63299 16.3291 -3.26877 -694.543 -28.5009 359.154
lowerback 22.2183 -2.23059 4.65218
upperback 1.02026 -1.15461 5.6565
thorax -11.3395 -0.629782 4.04873
lowerneck 4.47064 -1.76705 -7.1018
upperneck -24.4277 -3.97412 -0.890276
head -8.21254 -1.31979 1.25365
rclavicle -7.95139e-016 2.46493e-014
rhumerus 20.0965 -28.067 -25.1854
rradius 102.756
rwrist -8.49259
rhand -40.671 51.7439
rfingers 7.12502
rthumb -13.6146 22.2091
lclavicle -7.95139e-016 2.46493e-014
lhumerus -21.9668 26.4026 9.78565
lradius 95.8592
lwrist -21.1665
lhand -10.1437 59.7837
lfingers 7.12502
lthumb 15.8453 89.1553
rfemur -51.3945 19.697 14.7683
rtibia 35.3834
rfoot -8.16782 0.288918
rtoes -12.3373
lfemur -59.4939 -11.088 -2.39638
ltibia 68.8038
lfoot 26.9871 31.3116
ltoes 39.5175
